<svg xmlns="http://www.w3.org/2000/svg" viewBox="0 0 1280 420" width="1280" height="420">
<defs><linearGradient id="bg" x1="0" y1="0" x2="1" y2="1"><stop offset="0" stop-color="#211a4d"/><stop offset="1" stop-color="#0c0b1d"/></linearGradient>
<pattern id="dots" width="24" height="24" patternUnits="userSpaceOnUse"><circle cx="3" cy="3" r="1.8" fill="#fff" opacity=".06"/></pattern>
<clipPath id="c"><rect width="1280" height="420" rx="28"/></clipPath></defs>
<g clip-path="url(#c)"><rect width="1280" height="420" fill="url(#bg)"/><rect width="1280" height="420" fill="url(#dots)"/>
<path d="M1233.8 110.0 C1235.4 114.1 1237.8 118.3 1239.8 122.8 C1241.9 127.3 1244.6 132.2 1246.1 137.1 C1247.6 142.0 1248.9 147.3 1248.8 152.1 C1248.7 156.9 1247.5 161.9 1245.3 166.0 C1243.1 170.2 1239.5 174.0 1235.7 177.2 C1232.0 180.4 1227.1 182.9 1222.6 185.3 C1218.2 187.6 1213.4 189.4 1209.1 191.3 C1204.8 193.2 1200.7 195.0 1196.8 196.8 C1192.9 198.6 1189.3 200.5 1185.6 202.1 C1181.8 203.7 1178.2 205.3 1174.4 206.3 C1170.6 207.4 1166.6 208.1 1162.7 208.5 C1158.8 209.0 1154.7 208.8 1151.0 209.0 C1147.3 209.3 1143.7 209.1 1140.3 209.9 C1136.9 210.7 1133.9 211.9 1130.6 213.8 C1127.4 215.7 1124.4 218.6 1121.0 221.5 C1117.5 224.5 1114.0 228.4 1110.0 231.4 C1106.0 234.3 1101.6 237.6 1097.3 239.4 C1092.9 241.3 1088.1 242.4 1083.7 242.4 C1079.2 242.4 1074.8 241.1 1070.7 239.4 C1066.7 237.7 1063.0 234.9 1059.3 232.4 C1055.6 229.9 1052.3 226.9 1048.8 224.5 C1045.3 222.0 1041.8 219.7 1038.1 217.5 C1034.5 215.4 1030.5 213.6 1026.8 211.4 C1023.0 209.2 1019.0 207.1 1015.6 204.4 C1012.3 201.6 1009.0 198.5 1006.5 194.9 C1003.9 191.4 1002.0 187.3 1000.3 183.3 C998.7 179.2 997.7 174.8 996.5 170.7 C995.3 166.5 994.4 162.4 993.1 158.4 C991.8 154.4 990.2 150.7 988.8 146.8 C987.3 142.9 985.3 139.1 984.1 135.0 C982.9 131.0 981.7 126.8 981.6 122.6 C981.6 118.5 982.3 114.1 983.8 110.0 C985.4 105.9 988.2 101.9 991.0 98.3 C993.9 94.7 997.8 91.4 1000.9 88.3 C1004.0 85.2 1007.3 82.5 1009.6 79.5 C1011.8 76.5 1013.4 73.7 1014.3 70.4 C1015.3 67.0 1015.2 63.4 1015.3 59.4 C1015.3 55.4 1014.7 50.8 1014.8 46.4 C1014.9 41.9 1015.0 37.1 1015.8 32.7 C1016.7 28.3 1018.2 24.0 1020.0 20.0 C1021.9 16.0 1024.4 12.4 1027.0 8.9 C1029.6 5.3 1032.5 1.9 1035.5 -1.5 C1038.5 -5.0 1041.5 -8.5 1044.8 -11.9 C1048.1 -15.3 1051.5 -19.0 1055.4 -21.9 C1059.2 -24.8 1063.3 -27.7 1067.7 -29.3 C1072.2 -30.9 1077.1 -31.7 1081.9 -31.4 C1086.7 -31.1 1091.8 -29.4 1096.5 -27.2 C1101.2 -25.1 1105.8 -21.6 1110.0 -18.6 C1114.2 -15.7 1118.0 -12.0 1121.8 -9.4 C1125.5 -6.7 1128.8 -4.4 1132.4 -2.8 C1136.0 -1.2 1139.6 -0.5 1143.3 0.2 C1147.1 0.9 1151.1 0.8 1155.0 1.4 C1158.9 2.1 1163.0 2.6 1166.7 4.0 C1170.3 5.4 1173.9 7.3 1177.0 9.7 C1180.1 12.0 1182.8 15.2 1185.4 18.2 C1187.9 21.1 1190.0 24.5 1192.4 27.6 C1194.8 30.6 1197.1 33.5 1199.7 36.3 C1202.4 39.1 1205.3 41.6 1208.2 44.4 C1211.1 47.1 1214.3 49.8 1217.0 52.8 C1219.6 55.9 1222.2 59.2 1224.1 62.8 C1225.9 66.3 1227.1 70.3 1228.0 74.2 C1228.9 78.1 1228.9 82.3 1229.3 86.3 C1229.7 90.3 1229.7 94.2 1230.4 98.1 C1231.2 102.1 1232.3 105.9 1233.8 110.0Z" fill="#3346ff" stroke="#111" stroke-width="7"/><ellipse cx="1070.0" cy="62.5" rx="27.5" ry="13.8" fill="#fff" opacity=".35" transform="rotate(-25 1070.0 62.5)"/><circle cx="1104.8" cy="277.2" r="13.2" fill="#3346ff" stroke="#111" stroke-width="5"/><circle cx="1005.9" cy="-35.7" r="9.7" fill="#3346ff" stroke="#111" stroke-width="5"/><circle cx="1288.1" cy="142.0" r="13.1" fill="#3346ff" stroke="#111" stroke-width="5"/><circle cx="1121.0" cy="-37.2" r="13.2" fill="#3346ff" stroke="#111" stroke-width="5"/><path d="M1050.3 345.0 C1052.3 347.5 1054.6 350.2 1056.1 353.0 C1057.5 355.8 1058.5 358.8 1058.9 361.7 C1059.3 364.6 1058.9 367.5 1058.3 370.3 C1057.7 373.0 1056.5 375.7 1055.3 378.3 C1054.1 380.8 1052.7 383.3 1051.3 385.8 C1049.9 388.2 1048.5 390.7 1046.9 393.1 C1045.4 395.4 1043.8 397.8 1041.9 399.9 C1039.9 401.9 1037.7 403.8 1035.3 405.3 C1032.8 406.7 1029.9 407.8 1027.1 408.5 C1024.2 409.2 1021.0 409.3 1018.1 409.5 C1015.2 409.7 1012.2 409.5 1009.6 409.7 C1006.9 409.9 1004.6 410.2 1002.3 410.9 C1000.0 411.6 998.0 412.7 995.9 413.9 C993.8 415.1 991.8 416.9 989.6 418.2 C987.3 419.4 985.0 420.9 982.5 421.6 C980.1 422.3 977.5 422.7 975.0 422.5 C972.5 422.3 969.9 421.4 967.6 420.3 C965.2 419.3 963.0 417.7 960.8 416.5 C958.6 415.2 956.6 413.8 954.4 412.8 C952.3 411.8 950.2 411.0 947.9 410.5 C945.6 409.9 943.1 409.7 940.7 409.2 C938.2 408.8 935.5 408.5 933.0 407.8 C930.6 407.1 928.1 406.2 925.8 405.0 C923.5 403.8 921.4 402.2 919.3 400.7 C917.3 399.1 915.5 397.3 913.4 395.5 C911.4 393.8 909.4 392.1 907.1 390.4 C904.9 388.6 902.3 387.0 899.9 385.1 C897.5 383.3 894.8 381.4 892.6 379.1 C890.5 376.9 888.4 374.4 887.2 371.6 C886.0 368.9 885.4 365.8 885.6 362.8 C885.8 359.8 886.9 356.5 888.4 353.5 C889.8 350.6 892.2 347.6 894.3 345.0 C896.3 342.4 898.9 340.0 900.8 337.7 C902.7 335.4 904.5 333.4 905.9 331.3 C907.3 329.1 908.1 327.1 909.0 325.0 C909.9 322.9 910.4 320.7 911.2 318.6 C912.0 316.4 912.7 314.3 913.7 312.2 C914.7 310.2 916.0 308.3 917.2 306.4 C918.5 304.5 920.0 302.8 921.3 300.9 C922.6 299.0 923.8 297.1 925.0 295.0 C926.1 292.8 927.0 290.4 928.1 287.9 C929.2 285.3 930.1 282.4 931.4 279.8 C932.7 277.2 934.2 274.3 936.0 272.1 C937.9 270.0 940.2 268.0 942.6 266.7 C945.0 265.5 947.9 264.9 950.6 264.6 C953.4 264.4 956.3 264.9 959.1 265.2 C961.9 265.4 964.6 266.2 967.3 266.4 C969.9 266.6 972.4 266.7 975.0 266.5 C977.6 266.3 980.2 265.6 982.9 265.1 C985.6 264.6 988.4 263.7 991.2 263.5 C994.0 263.2 997.0 263.0 999.7 263.5 C1002.5 264.0 1005.2 265.0 1007.6 266.3 C1010.0 267.7 1012.2 269.7 1014.2 271.7 C1016.2 273.6 1018.0 276.0 1019.7 278.1 C1021.5 280.2 1023.1 282.4 1024.7 284.4 C1026.4 286.4 1028.1 288.3 1029.6 290.4 C1031.2 292.4 1032.8 294.3 1034.0 296.6 C1035.2 298.8 1036.2 301.2 1036.8 303.7 C1037.4 306.2 1037.5 309.0 1037.5 311.6 C1037.5 314.2 1036.9 317.0 1036.8 319.4 C1036.6 321.9 1036.2 324.2 1036.5 326.4 C1036.8 328.5 1037.4 330.4 1038.6 332.4 C1039.8 334.3 1041.7 336.1 1043.6 338.2 C1045.6 340.3 1048.2 342.5 1050.3 345.0Z" fill="#ff7a00" stroke="#111" stroke-width="7"/><ellipse cx="950.0" cy="315.4" rx="17.2" ry="8.6" fill="#fff" opacity=".35" transform="rotate(-25 950.0 315.4)"/><circle cx="1072.2" cy="402.4" r="10.1" fill="#ff7a00" stroke="#111" stroke-width="5"/><circle cx="926.6" cy="257.8" r="9.2" fill="#ff7a00" stroke="#111" stroke-width="5"/><circle cx="891.4" cy="278.9" r="6.4" fill="#ff7a00" stroke="#111" stroke-width="5"/><path d="M225.3 385.0 C224.0 388.4 221.6 391.7 219.6 394.8 C217.6 397.9 215.1 400.7 213.3 403.6 C211.5 406.4 209.9 409.1 208.8 411.9 C207.6 414.8 207.0 417.7 206.3 420.8 C205.6 423.8 205.4 427.1 204.5 430.2 C203.7 433.3 202.7 436.5 201.1 439.2 C199.5 441.9 197.4 444.4 194.9 446.5 C192.4 448.5 189.3 450.0 186.4 451.4 C183.5 452.8 180.2 453.6 177.2 454.7 C174.3 455.8 171.4 456.7 168.7 457.9 C166.0 459.1 163.6 460.4 161.1 461.8 C158.5 463.2 156.2 464.8 153.6 466.1 C151.0 467.4 148.4 468.7 145.6 469.5 C142.9 470.3 140.0 470.7 137.1 470.9 C134.2 471.2 131.3 470.9 128.5 471.0 C125.6 471.1 122.9 471.0 120.0 471.5 C117.1 472.1 114.3 472.9 111.2 474.2 C108.1 475.5 104.8 477.4 101.3 479.1 C97.7 480.8 93.8 483.0 89.9 484.3 C86.0 485.5 81.7 486.7 77.9 486.7 C74.1 486.7 70.2 485.9 66.9 484.3 C63.7 482.7 60.8 480.0 58.4 477.2 C56.0 474.4 54.2 470.7 52.5 467.3 C50.7 463.9 49.5 460.2 48.1 456.9 C46.7 453.5 45.5 450.3 44.2 447.2 C43.0 444.0 41.6 441.1 40.6 438.1 C39.5 435.0 38.5 432.0 38.0 428.8 C37.4 425.7 37.3 422.4 37.3 419.2 C37.4 416.1 38.0 412.8 38.4 409.8 C38.7 406.7 39.4 403.8 39.5 401.0 C39.6 398.2 39.5 395.7 38.8 393.0 C38.1 390.3 36.7 387.8 35.3 385.0 C34.0 382.2 31.9 379.3 30.5 376.2 C29.1 373.1 27.6 369.7 27.0 366.5 C26.4 363.3 26.3 359.8 26.9 356.8 C27.6 353.7 29.1 350.7 30.8 348.1 C32.5 345.4 34.9 343.0 37.0 340.6 C39.0 338.2 41.3 336.1 43.1 333.6 C45.0 331.2 46.5 328.7 48.0 325.9 C49.5 323.2 50.6 320.1 52.0 317.0 C53.5 314.0 54.8 310.7 56.7 307.8 C58.5 305.0 60.7 302.2 63.1 299.9 C65.6 297.6 68.5 295.8 71.5 294.2 C74.4 292.7 77.7 291.7 80.9 290.6 C84.1 289.5 87.3 288.7 90.5 287.7 C93.7 286.7 96.8 285.5 100.0 284.6 C103.3 283.6 106.5 282.4 109.8 281.9 C113.2 281.4 116.7 281.0 120.0 281.5 C123.3 282.1 126.8 283.2 129.8 285.1 C132.9 287.0 135.8 289.9 138.3 292.8 C140.9 295.7 143.0 299.4 145.0 302.4 C147.1 305.5 148.7 308.7 150.6 311.1 C152.5 313.5 154.3 315.4 156.5 316.7 C158.7 318.1 161.2 318.6 164.0 319.2 C166.7 319.8 169.9 319.9 173.0 320.4 C176.1 321.0 179.4 321.5 182.5 322.5 C185.5 323.6 188.4 325.0 191.1 326.6 C193.8 328.3 196.2 330.4 198.6 332.5 C201.0 334.6 203.2 336.9 205.6 339.3 C207.9 341.6 210.4 344.0 212.9 346.5 C215.3 349.1 218.0 351.7 220.2 354.6 C222.3 357.5 224.6 360.7 225.9 363.9 C227.1 367.2 227.9 370.9 227.8 374.4 C227.8 377.9 226.7 381.6 225.3 385.0Z" fill="#3346ff" stroke="#111" stroke-width="7"/><ellipse cx="89.6" cy="348.9" rx="20.9" ry="10.4" fill="#fff" opacity=".35" transform="rotate(-25 89.6 348.9)"/><circle cx="15.7" cy="305.5" r="7.1" fill="#3346ff" stroke="#111" stroke-width="5"/><circle cx="257.1" cy="396.4" r="8.6" fill="#3346ff" stroke="#111" stroke-width="5"/><circle cx="134.1" cy="526.7" r="10.2" fill="#3346ff" stroke="#111" stroke-width="5"/><path d="M1295.2 355.0 C1295.2 356.9 1294.8 358.9 1294.2 360.8 C1293.7 362.7 1292.8 364.6 1291.9 366.3 C1291.1 368.1 1290.1 369.8 1289.2 371.4 C1288.3 373.1 1287.4 374.7 1286.3 376.2 C1285.2 377.8 1284.1 379.3 1282.8 380.5 C1281.4 381.8 1279.8 382.9 1278.1 383.8 C1276.5 384.7 1274.5 385.3 1272.6 385.9 C1270.8 386.4 1268.8 386.6 1267.1 387.1 C1265.3 387.5 1263.7 387.7 1262.4 388.4 C1261.0 389.0 1260.0 389.8 1259.0 390.9 C1258.0 392.0 1257.3 393.6 1256.4 395.1 C1255.5 396.6 1254.7 398.5 1253.7 400.0 C1252.6 401.6 1251.4 403.2 1250.0 404.4 C1248.6 405.6 1247.0 406.5 1245.4 407.0 C1243.7 407.6 1241.9 407.7 1240.2 407.8 C1238.5 407.9 1236.7 407.7 1235.0 407.6 C1233.3 407.5 1231.6 407.4 1229.8 407.3 C1228.1 407.3 1226.4 407.5 1224.6 407.5 C1222.8 407.5 1220.9 407.6 1219.1 407.5 C1217.3 407.3 1215.4 407.0 1213.7 406.4 C1212.0 405.8 1210.3 404.9 1208.9 403.9 C1207.4 402.9 1206.0 401.5 1204.7 400.3 C1203.4 399.1 1202.3 397.7 1201.0 396.5 C1199.7 395.2 1198.4 394.1 1197.0 393.0 C1195.6 391.9 1194.0 391.0 1192.5 389.9 C1191.0 388.8 1189.4 387.7 1188.1 386.3 C1186.9 385.0 1185.7 383.4 1185.0 381.7 C1184.3 380.0 1184.1 378.0 1184.2 376.1 C1184.2 374.1 1184.9 372.0 1185.6 370.0 C1186.2 368.0 1187.4 366.1 1188.1 364.3 C1188.9 362.6 1189.8 361.0 1190.3 359.4 C1190.9 357.8 1191.1 356.5 1191.2 355.0 C1191.2 353.5 1190.9 352.1 1190.7 350.6 C1190.5 349.1 1190.1 347.6 1189.9 346.0 C1189.8 344.5 1189.6 342.9 1189.7 341.3 C1189.7 339.7 1190.0 338.1 1190.2 336.4 C1190.4 334.8 1190.8 333.2 1191.0 331.5 C1191.3 329.8 1191.5 328.0 1191.7 326.1 C1191.9 324.1 1191.9 322.0 1192.2 319.9 C1192.5 317.8 1192.8 315.5 1193.5 313.5 C1194.2 311.5 1195.1 309.5 1196.4 308.0 C1197.7 306.5 1199.4 305.2 1201.2 304.5 C1203.1 303.7 1205.3 303.4 1207.4 303.3 C1209.5 303.3 1211.8 303.7 1213.9 303.9 C1215.9 304.2 1217.9 304.7 1219.8 304.9 C1221.7 305.1 1223.4 305.1 1225.1 305.0 C1226.8 304.9 1228.4 304.6 1230.0 304.3 C1231.7 304.1 1233.3 303.7 1235.0 303.6 C1236.7 303.5 1238.4 303.5 1240.0 303.8 C1241.7 304.2 1243.3 304.8 1244.9 305.5 C1246.4 306.2 1247.8 307.1 1249.3 308.0 C1250.7 308.8 1252.1 309.6 1253.5 310.4 C1254.9 311.1 1256.4 311.6 1257.9 312.2 C1259.4 312.8 1261.0 313.2 1262.5 313.8 C1264.0 314.5 1265.6 315.1 1267.0 316.1 C1268.3 317.0 1269.5 318.2 1270.5 319.5 C1271.5 320.8 1272.2 322.4 1272.9 323.9 C1273.6 325.4 1274.0 327.1 1274.6 328.5 C1275.2 330.0 1275.8 331.4 1276.7 332.7 C1277.7 334.0 1278.8 335.1 1280.2 336.3 C1281.6 337.4 1283.4 338.5 1285.1 339.8 C1286.7 341.1 1288.7 342.5 1290.1 344.0 C1291.6 345.6 1293.0 347.4 1293.8 349.2 C1294.7 351.0 1295.1 353.1 1295.2 355.0Z" fill="#ff7a00" stroke="#111" stroke-width="7"/><ellipse cx="1218.4" cy="335.2" rx="11.4" ry="5.7" fill="#fff" opacity=".35" transform="rotate(-25 1218.4 335.2)"/><circle cx="1270.1" cy="406.6" r="5.3" fill="#ff7a00" stroke="#111" stroke-width="5"/><circle cx="1299.9" cy="318.0" r="6.8" fill="#ff7a00" stroke="#111" stroke-width="5"/><path d="M113.6 55.0 C113.2 57.0 113.5 58.8 113.8 60.8 C114.2 62.8 115.0 64.9 115.6 67.0 C116.1 69.2 116.8 71.6 117.0 73.8 C117.2 76.1 117.1 78.4 116.7 80.6 C116.3 82.7 115.5 84.8 114.7 86.9 C113.8 88.9 112.7 90.9 111.7 92.9 C110.7 94.9 109.7 97.0 108.8 99.1 C107.8 101.3 106.9 103.6 105.8 105.8 C104.7 108.0 103.6 110.4 102.1 112.4 C100.6 114.4 98.9 116.4 97.0 117.8 C95.0 119.3 92.7 120.3 90.3 121.1 C88.0 121.8 85.3 122.0 82.9 122.4 C80.5 122.7 78.0 122.6 75.6 123.0 C73.3 123.3 71.1 123.8 68.8 124.5 C66.6 125.2 64.4 126.3 62.1 127.3 C59.8 128.3 57.5 129.7 55.0 130.5 C52.5 131.3 49.9 132.0 47.4 132.0 C44.9 132.1 42.3 131.6 40.0 130.5 C37.7 129.5 35.4 127.7 33.5 125.9 C31.5 124.1 29.9 121.6 28.3 119.5 C26.7 117.4 25.3 115.2 23.9 113.2 C22.4 111.3 21.1 109.6 19.6 108.0 C18.2 106.3 16.6 105.0 15.2 103.5 C13.7 102.0 12.2 100.7 10.9 99.1 C9.6 97.5 8.4 95.8 7.4 94.1 C6.3 92.4 5.5 90.5 4.5 88.7 C3.5 87.0 2.7 85.2 1.4 83.6 C0.1 82.0 -1.3 80.6 -3.2 79.1 C-5.0 77.6 -7.4 76.3 -9.7 74.6 C-12.1 73.0 -14.9 71.3 -17.2 69.4 C-19.5 67.4 -21.9 65.1 -23.4 62.7 C-25.0 60.3 -26.1 57.6 -26.4 55.0 C-26.8 52.4 -26.3 49.6 -25.5 47.1 C-24.7 44.5 -23.2 42.1 -21.7 39.7 C-20.3 37.4 -18.5 35.3 -17.0 33.2 C-15.5 31.0 -14.0 29.0 -12.6 27.0 C-11.3 24.9 -10.1 22.9 -8.8 20.9 C-7.5 18.9 -6.2 16.9 -4.7 15.1 C-3.1 13.4 -1.4 11.7 0.5 10.3 C2.4 8.9 4.7 7.8 6.8 6.8 C8.9 5.8 11.2 5.1 13.3 4.2 C15.4 3.3 17.4 2.5 19.2 1.4 C21.0 0.3 22.6 -1.0 24.3 -2.4 C26.0 -3.8 27.5 -5.6 29.3 -7.0 C31.1 -8.4 33.0 -10.0 35.0 -11.0 C37.0 -12.0 39.3 -12.7 41.5 -12.8 C43.7 -13.0 46.2 -12.6 48.4 -12.0 C50.6 -11.5 52.9 -10.3 55.0 -9.5 C57.1 -8.7 59.1 -7.7 61.1 -7.3 C63.2 -6.8 65.1 -6.6 67.3 -6.8 C69.5 -6.9 71.7 -7.6 74.1 -8.1 C76.6 -8.6 79.2 -9.4 81.8 -9.8 C84.5 -10.2 87.3 -10.5 89.9 -10.2 C92.5 -10.0 95.0 -9.4 97.4 -8.4 C99.7 -7.5 101.9 -6.1 104.0 -4.7 C106.1 -3.3 108.0 -1.6 109.9 0.1 C111.8 1.7 113.8 3.5 115.6 5.3 C117.4 7.1 119.4 8.9 120.9 10.9 C122.5 13.0 124.0 15.2 124.9 17.6 C125.8 20.1 126.3 22.8 126.2 25.5 C126.1 28.2 125.3 31.2 124.2 34.0 C123.2 36.7 121.5 39.5 120.1 42.0 C118.7 44.5 117.0 46.8 115.9 49.0 C114.8 51.2 113.9 53.0 113.6 55.0Z" fill="#ff7a00" stroke="#111" stroke-width="7"/><ellipse cx="32.6" cy="28.4" rx="15.4" ry="7.7" fill="#fff" opacity=".35" transform="rotate(-25 32.6 28.4)"/><circle cx="147.7" cy="19.6" r="10.1" fill="#ff7a00" stroke="#111" stroke-width="5"/><circle cx="146.5" cy="71.9" r="10.2" fill="#ff7a00" stroke="#111" stroke-width="5"/><circle cx="-6.1" cy="-27.6" r="5.5" fill="#ff7a00" stroke="#111" stroke-width="5"/><path d="M819.0 58.0 C818.9 59.0 818.8 59.9 818.9 60.9 C819.1 61.8 819.3 62.8 819.7 63.9 C820.1 65.0 820.8 66.2 821.3 67.5 C821.8 68.8 822.4 70.2 822.8 71.6 C823.1 72.9 823.3 74.4 823.2 75.8 C823.1 77.1 822.7 78.4 822.1 79.4 C821.4 80.5 820.4 81.4 819.4 82.2 C818.4 82.9 817.2 83.5 816.1 84.1 C815.0 84.7 813.8 85.1 812.7 85.7 C811.7 86.2 810.7 86.8 809.7 87.4 C808.7 88.1 807.8 88.8 806.8 89.4 C805.8 89.9 804.7 90.6 803.7 91.0 C802.6 91.4 801.4 91.7 800.3 91.8 C799.1 91.9 797.9 91.8 796.7 91.7 C795.5 91.6 794.4 91.3 793.3 91.2 C792.1 91.0 791.1 90.9 790.0 90.8 C788.9 90.7 787.9 90.8 786.8 90.8 C785.7 90.9 784.5 91.0 783.5 90.9 C782.4 90.8 781.2 90.7 780.2 90.3 C779.2 90.0 778.2 89.3 777.3 88.6 C776.5 87.9 775.8 86.8 775.1 85.9 C774.5 84.9 774.0 83.8 773.4 82.9 C772.8 81.9 772.3 81.1 771.6 80.4 C770.9 79.7 770.1 79.3 769.2 78.8 C768.2 78.4 767.0 78.2 765.8 77.8 C764.7 77.5 763.3 77.1 762.1 76.6 C760.9 76.1 759.7 75.5 758.7 74.7 C757.7 74.0 756.8 73.1 756.0 72.1 C755.3 71.1 754.8 70.0 754.2 68.9 C753.7 67.7 753.3 66.6 752.9 65.4 C752.5 64.2 752.0 63.0 751.7 61.8 C751.4 60.5 751.1 59.3 751.0 58.0 C750.9 56.7 750.9 55.4 751.3 54.2 C751.6 53.0 752.2 51.7 753.0 50.6 C753.9 49.6 755.0 48.6 756.2 47.7 C757.3 46.9 758.8 46.2 759.9 45.5 C761.1 44.9 762.3 44.4 763.2 43.7 C764.2 43.0 764.9 42.4 765.5 41.6 C766.1 40.9 766.5 40.0 766.9 39.0 C767.3 38.1 767.5 37.0 768.0 36.0 C768.4 35.0 768.9 34.0 769.6 33.1 C770.2 32.3 771.0 31.5 771.9 30.9 C772.7 30.3 773.7 29.8 774.7 29.4 C775.7 28.9 776.7 28.6 777.6 28.2 C778.6 27.7 779.5 27.2 780.5 26.7 C781.5 26.2 782.4 25.6 783.4 25.0 C784.5 24.5 785.5 23.9 786.6 23.5 C787.7 23.1 788.9 22.9 790.0 22.8 C791.1 22.7 792.3 22.9 793.4 23.2 C794.6 23.4 795.6 23.9 796.7 24.2 C797.8 24.6 798.8 25.0 799.9 25.3 C801.0 25.5 802.1 25.7 803.3 25.8 C804.6 25.9 805.9 25.8 807.2 25.9 C808.5 26.0 809.9 26.0 811.2 26.3 C812.4 26.6 813.7 27.1 814.7 27.8 C815.8 28.6 816.6 29.6 817.2 30.8 C817.8 31.9 818.2 33.3 818.4 34.7 C818.6 36.0 818.6 37.5 818.7 38.9 C818.7 40.2 818.6 41.5 818.6 42.7 C818.7 43.9 818.7 45.0 818.9 46.0 C819.0 47.1 819.2 48.1 819.3 49.1 C819.4 50.1 819.6 51.1 819.6 52.1 C819.6 53.1 819.5 54.1 819.4 55.1 C819.3 56.1 819.1 57.0 819.0 58.0Z" fill="#3346ff" stroke="#111" stroke-width="7"/><ellipse cx="779.1" cy="45.1" rx="7.5" ry="3.7" fill="#fff" opacity=".35" transform="rotate(-25 779.1 45.1)"/><circle cx="787.1" cy="98.0" r="4.2" fill="#3346ff" stroke="#111" stroke-width="5"/><circle cx="742.5" cy="67.1" r="3.4" fill="#3346ff" stroke="#111" stroke-width="5"/>
<g transform="rotate(-5 460 190)"><path d="M184.78 108.44999999999999Q183.52 110.05999999999999 182.33 110.86499999999998Q181.14000000000001 111.66999999999999 179.46 111.66999999999999Q177.85000000000002 111.66999999999999 176.24 110.61999999999999Q174.63 109.57 172.635 108.31Q170.64000000000001 107.05 168.05 106.0Q165.46 104.94999999999999 161.96 104.94999999999999Q158.74 104.94999999999999 156.325 105.85999999999999Q153.91 106.77 152.3 108.38Q150.69 109.99 149.885 112.16Q149.08 114.33 149.08 116.91999999999999Q149.08 119.72 150.65500000000003 121.61Q152.23000000000002 123.5 154.85500000000002 124.935Q157.48000000000002 126.37 160.77 127.56Q164.06 128.75 167.525 130.15Q170.99 131.55 174.315 133.37Q177.64000000000001 135.19 180.265 137.92000000000002Q182.89 140.65 184.465 144.5Q186.04000000000002 148.35 186.04000000000002 153.74Q186.04000000000002 161.44 183.38 168.23000000000002Q180.72 175.02 175.75 180.095Q170.78 185.17 163.675 188.14499999999998Q156.57 191.12 147.68 191.12Q143.27 191.12 138.825 190.14Q134.38 189.16 130.285 187.375Q126.19 185.59 122.69 183.14Q119.19 180.69 116.74 177.68L124.86 167.04Q125.84 165.85 127.275 165.07999999999998Q128.71 164.31 130.18 164.31Q132.14 164.31 133.995 165.675Q135.85 167.04 138.09 168.685Q140.33 170.32999999999998 143.305 171.695Q146.28 173.06 150.62 173.06Q156.99 173.06 160.455 169.595Q163.92000000000002 166.13 163.92000000000002 159.34Q163.92000000000002 156.19 162.34500000000003 154.16Q160.77 152.13 158.215 150.73Q155.66 149.32999999999998 152.37 148.245Q149.08 147.16 145.65 145.89999999999998Q142.22 144.64 138.93 142.92499999999998Q135.64 141.20999999999998 133.08499999999998 138.445Q130.53 135.68 128.95499999999998 131.655Q127.38 127.63 127.38 121.75Q127.38 114.96 129.935 108.695Q132.49 102.42999999999999 137.25 97.6Q142.01 92.77 148.8 89.89999999999999Q155.59 87.02999999999999 164.06 87.02999999999999Q168.4 87.02999999999999 172.495 87.94Q176.59 88.85 180.16000000000003 90.46Q183.73000000000002 92.07 186.67000000000002 94.27499999999999Q189.61 96.47999999999999 191.64 99.07ZM220.09000000000003 155.63 215.89000000000004 190.0H193.21000000000004L205.67000000000002 88.00999999999999H239.41000000000003Q248.51000000000005 88.00999999999999 254.98500000000004 90.21499999999999Q261.46000000000004 92.41999999999999 265.625 96.30499999999999Q269.79 100.19 271.75 105.475Q273.71000000000004 110.75999999999999 273.71000000000004 116.85Q273.71000000000004 125.17999999999999 271.15500000000003 132.285Q268.6 139.39 263.35 144.57Q258.1 149.75 250.05 152.69Q242.00000000000003 155.63 231.01000000000005 155.63ZM226.39000000000004 105.02 222.26000000000005 138.48H233.25000000000003Q238.15000000000003 138.48 241.47500000000002 137.045Q244.80000000000004 135.60999999999999 246.86500000000004 132.98499999999999Q248.93000000000004 130.35999999999999 249.84000000000003 126.72Q250.75000000000003 123.08 250.75000000000003 118.74Q250.75000000000003 115.72999999999999 249.94500000000005 113.21Q249.14000000000004 110.69 247.46000000000004 108.87Q245.78000000000003 107.05 243.22500000000002 106.035Q240.67000000000002 105.02 237.17000000000002 105.02ZM300.06000000000006 171.8H334.36000000000007L332.12000000000006 190.0H275.00000000000006L287.6 88.00999999999999H310.4200000000001ZM426.7900000000001 190.0H409.1500000000001Q406.2100000000001 190.0 404.56500000000005 188.635Q402.9200000000001 187.27 402.2900000000001 185.03L399.1400000000001 166.69H364.49000000000007L356.93000000000006 185.03Q355.9500000000001 186.92 353.81500000000005 188.45999999999998Q351.68000000000006 190.0 348.9500000000001 190.0H331.0300000000001L379.75000000000006 88.00999999999999H403.1300000000001ZM370.86000000000007 151.15H396.4800000000001L391.5100000000001 122.02999999999999Q390.9500000000001 119.3 390.2850000000001 115.59Q389.62000000000006 111.88 388.99000000000007 107.53999999999999Q387.31000000000006 111.88 385.6650000000001 115.625Q384.0200000000001 119.36999999999999 382.8300000000001 122.16999999999999ZM495.70000000000005 108.44999999999999Q494.44000000000005 110.05999999999999 493.25000000000006 110.86499999999998Q492.06000000000006 111.66999999999999 490.3800000000001 111.66999999999999Q488.7700000000001 111.66999999999999 487.1600000000001 110.61999999999999Q485.55000000000007 109.57 483.55500000000006 108.31Q481.56000000000006 107.05 478.9700000000001 106.0Q476.3800000000001 104.94999999999999 472.88000000000005 104.94999999999999Q469.6600000000001 104.94999999999999 467.2450000000001 105.85999999999999Q464.8300000000001 106.77 463.2200000000001 108.38Q461.61000000000007 109.99 460.80500000000006 112.16Q460.00000000000006 114.33 460.00000000000006 116.91999999999999Q460.00000000000006 119.72 461.57500000000005 121.61Q463.1500000000001 123.5 465.7750000000001 124.935Q468.4000000000001 126.37 471.69000000000005 127.56Q474.9800000000001 128.75 478.44500000000005 130.15Q481.9100000000001 131.55 485.23500000000007 133.37Q488.56000000000006 135.19 491.18500000000006 137.92000000000002Q493.81000000000006 140.65 495.3850000000001 144.5Q496.9600000000001 148.35 496.9600000000001 153.74Q496.9600000000001 161.44 494.30000000000007 168.23000000000002Q491.6400000000001 175.02 486.6700000000001 180.095Q481.7000000000001 185.17 474.5950000000001 188.14499999999998Q467.49000000000007 191.12 458.6000000000001 191.12Q454.19000000000005 191.12 449.74500000000006 190.14Q445.30000000000007 189.16 441.20500000000004 187.375Q437.11000000000007 185.59 433.61000000000007 183.14Q430.11000000000007 180.69 427.6600000000001 177.68L435.7800000000001 167.04Q436.76000000000005 165.85 438.19500000000005 165.07999999999998Q439.63000000000005 164.31 441.1000000000001 164.31Q443.06000000000006 164.31 444.9150000000001 165.675Q446.7700000000001 167.04 449.0100000000001 168.685Q451.25000000000006 170.32999999999998 454.225 171.695Q457.20000000000005 173.06 461.5400000000001 173.06Q467.9100000000001 173.06 471.3750000000001 169.595Q474.8400000000001 166.13 474.8400000000001 159.34Q474.8400000000001 156.19 473.2650000000001 154.16Q471.69000000000005 152.13 469.1350000000001 150.73Q466.5800000000001 149.32999999999998 463.2900000000001 148.245Q460.00000000000006 147.16 456.57000000000005 145.89999999999998Q453.1400000000001 144.64 449.8500000000001 142.92499999999998Q446.56000000000006 141.20999999999998 444.00500000000005 138.445Q441.45000000000005 135.68 439.87500000000006 131.655Q438.30000000000007 127.63 438.30000000000007 121.75Q438.30000000000007 114.96 440.8550000000001 108.695Q443.4100000000001 102.42999999999999 448.1700000000001 97.6Q452.93000000000006 92.77 459.7200000000001 89.89999999999999Q466.5100000000001 87.02999999999999 474.9800000000001 87.02999999999999Q479.32000000000005 87.02999999999999 483.4150000000001 87.94Q487.5100000000001 88.85 491.0800000000001 90.46Q494.6500000000001 92.07 497.5900000000001 94.27499999999999Q500.5300000000001 96.47999999999999 502.56000000000006 99.07ZM586.8700000000001 190.0H563.9100000000001L569.2300000000001 146.6H532.4100000000001L527.0900000000001 190.0H504.1300000000001L516.7300000000001 88.00999999999999H539.69L534.3700000000001 131.06H571.19L576.5100000000001 88.00999999999999H599.4700000000001Z" fill="#111" transform="translate(0 9)"/><path d="M184.78 108.44999999999999Q183.52 110.05999999999999 182.33 110.86499999999998Q181.14000000000001 111.66999999999999 179.46 111.66999999999999Q177.85000000000002 111.66999999999999 176.24 110.61999999999999Q174.63 109.57 172.635 108.31Q170.64000000000001 107.05 168.05 106.0Q165.46 104.94999999999999 161.96 104.94999999999999Q158.74 104.94999999999999 156.325 105.85999999999999Q153.91 106.77 152.3 108.38Q150.69 109.99 149.885 112.16Q149.08 114.33 149.08 116.91999999999999Q149.08 119.72 150.65500000000003 121.61Q152.23000000000002 123.5 154.85500000000002 124.935Q157.48000000000002 126.37 160.77 127.56Q164.06 128.75 167.525 130.15Q170.99 131.55 174.315 133.37Q177.64000000000001 135.19 180.265 137.92000000000002Q182.89 140.65 184.465 144.5Q186.04000000000002 148.35 186.04000000000002 153.74Q186.04000000000002 161.44 183.38 168.23000000000002Q180.72 175.02 175.75 180.095Q170.78 185.17 163.675 188.14499999999998Q156.57 191.12 147.68 191.12Q143.27 191.12 138.825 190.14Q134.38 189.16 130.285 187.375Q126.19 185.59 122.69 183.14Q119.19 180.69 116.74 177.68L124.86 167.04Q125.84 165.85 127.275 165.07999999999998Q128.71 164.31 130.18 164.31Q132.14 164.31 133.995 165.675Q135.85 167.04 138.09 168.685Q140.33 170.32999999999998 143.305 171.695Q146.28 173.06 150.62 173.06Q156.99 173.06 160.455 169.595Q163.92000000000002 166.13 163.92000000000002 159.34Q163.92000000000002 156.19 162.34500000000003 154.16Q160.77 152.13 158.215 150.73Q155.66 149.32999999999998 152.37 148.245Q149.08 147.16 145.65 145.89999999999998Q142.22 144.64 138.93 142.92499999999998Q135.64 141.20999999999998 133.08499999999998 138.445Q130.53 135.68 128.95499999999998 131.655Q127.38 127.63 127.38 121.75Q127.38 114.96 129.935 108.695Q132.49 102.42999999999999 137.25 97.6Q142.01 92.77 148.8 89.89999999999999Q155.59 87.02999999999999 164.06 87.02999999999999Q168.4 87.02999999999999 172.495 87.94Q176.59 88.85 180.16000000000003 90.46Q183.73000000000002 92.07 186.67000000000002 94.27499999999999Q189.61 96.47999999999999 191.64 99.07ZM220.09000000000003 155.63 215.89000000000004 190.0H193.21000000000004L205.67000000000002 88.00999999999999H239.41000000000003Q248.51000000000005 88.00999999999999 254.98500000000004 90.21499999999999Q261.46000000000004 92.41999999999999 265.625 96.30499999999999Q269.79 100.19 271.75 105.475Q273.71000000000004 110.75999999999999 273.71000000000004 116.85Q273.71000000000004 125.17999999999999 271.15500000000003 132.285Q268.6 139.39 263.35 144.57Q258.1 149.75 250.05 152.69Q242.00000000000003 155.63 231.01000000000005 155.63ZM226.39000000000004 105.02 222.26000000000005 138.48H233.25000000000003Q238.15000000000003 138.48 241.47500000000002 137.045Q244.80000000000004 135.60999999999999 246.86500000000004 132.98499999999999Q248.93000000000004 130.35999999999999 249.84000000000003 126.72Q250.75000000000003 123.08 250.75000000000003 118.74Q250.75000000000003 115.72999999999999 249.94500000000005 113.21Q249.14000000000004 110.69 247.46000000000004 108.87Q245.78000000000003 107.05 243.22500000000002 106.035Q240.67000000000002 105.02 237.17000000000002 105.02ZM300.06000000000006 171.8H334.36000000000007L332.12000000000006 190.0H275.00000000000006L287.6 88.00999999999999H310.4200000000001ZM426.7900000000001 190.0H409.1500000000001Q406.2100000000001 190.0 404.56500000000005 188.635Q402.9200000000001 187.27 402.2900000000001 185.03L399.1400000000001 166.69H364.49000000000007L356.93000000000006 185.03Q355.9500000000001 186.92 353.81500000000005 188.45999999999998Q351.68000000000006 190.0 348.9500000000001 190.0H331.0300000000001L379.75000000000006 88.00999999999999H403.1300000000001ZM370.86000000000007 151.15H396.4800000000001L391.5100000000001 122.02999999999999Q390.9500000000001 119.3 390.2850000000001 115.59Q389.62000000000006 111.88 388.99000000000007 107.53999999999999Q387.31000000000006 111.88 385.6650000000001 115.625Q384.0200000000001 119.36999999999999 382.8300000000001 122.16999999999999ZM495.70000000000005 108.44999999999999Q494.44000000000005 110.05999999999999 493.25000000000006 110.86499999999998Q492.06000000000006 111.66999999999999 490.3800000000001 111.66999999999999Q488.7700000000001 111.66999999999999 487.1600000000001 110.61999999999999Q485.55000000000007 109.57 483.55500000000006 108.31Q481.56000000000006 107.05 478.9700000000001 106.0Q476.3800000000001 104.94999999999999 472.88000000000005 104.94999999999999Q469.6600000000001 104.94999999999999 467.2450000000001 105.85999999999999Q464.8300000000001 106.77 463.2200000000001 108.38Q461.61000000000007 109.99 460.80500000000006 112.16Q460.00000000000006 114.33 460.00000000000006 116.91999999999999Q460.00000000000006 119.72 461.57500000000005 121.61Q463.1500000000001 123.5 465.7750000000001 124.935Q468.4000000000001 126.37 471.69000000000005 127.56Q474.9800000000001 128.75 478.44500000000005 130.15Q481.9100000000001 131.55 485.23500000000007 133.37Q488.56000000000006 135.19 491.18500000000006 137.92000000000002Q493.81000000000006 140.65 495.3850000000001 144.5Q496.9600000000001 148.35 496.9600000000001 153.74Q496.9600000000001 161.44 494.30000000000007 168.23000000000002Q491.6400000000001 175.02 486.6700000000001 180.095Q481.7000000000001 185.17 474.5950000000001 188.14499999999998Q467.49000000000007 191.12 458.6000000000001 191.12Q454.19000000000005 191.12 449.74500000000006 190.14Q445.30000000000007 189.16 441.20500000000004 187.375Q437.11000000000007 185.59 433.61000000000007 183.14Q430.11000000000007 180.69 427.6600000000001 177.68L435.7800000000001 167.04Q436.76000000000005 165.85 438.19500000000005 165.07999999999998Q439.63000000000005 164.31 441.1000000000001 164.31Q443.06000000000006 164.31 444.9150000000001 165.675Q446.7700000000001 167.04 449.0100000000001 168.685Q451.25000000000006 170.32999999999998 454.225 171.695Q457.20000000000005 173.06 461.5400000000001 173.06Q467.9100000000001 173.06 471.3750000000001 169.595Q474.8400000000001 166.13 474.8400000000001 159.34Q474.8400000000001 156.19 473.2650000000001 154.16Q471.69000000000005 152.13 469.1350000000001 150.73Q466.5800000000001 149.32999999999998 463.2900000000001 148.245Q460.00000000000006 147.16 456.57000000000005 145.89999999999998Q453.1400000000001 144.64 449.8500000000001 142.92499999999998Q446.56000000000006 141.20999999999998 444.00500000000005 138.445Q441.45000000000005 135.68 439.87500000000006 131.655Q438.30000000000007 127.63 438.30000000000007 121.75Q438.30000000000007 114.96 440.8550000000001 108.695Q443.4100000000001 102.42999999999999 448.1700000000001 97.6Q452.93000000000006 92.77 459.7200000000001 89.89999999999999Q466.5100000000001 87.02999999999999 474.9800000000001 87.02999999999999Q479.32000000000005 87.02999999999999 483.4150000000001 87.94Q487.5100000000001 88.85 491.0800000000001 90.46Q494.6500000000001 92.07 497.5900000000001 94.27499999999999Q500.5300000000001 96.47999999999999 502.56000000000006 99.07ZM586.8700000000001 190.0H563.9100000000001L569.2300000000001 146.6H532.4100000000001L527.0900000000001 190.0H504.1300000000001L516.7300000000001 88.00999999999999H539.69L534.3700000000001 131.06H571.19L576.5100000000001 88.00999999999999H599.4700000000001Z" fill="#111" stroke="#111" stroke-width="12" stroke-linejoin="round"/><path d="M184.78 108.44999999999999Q183.52 110.05999999999999 182.33 110.86499999999998Q181.14000000000001 111.66999999999999 179.46 111.66999999999999Q177.85000000000002 111.66999999999999 176.24 110.61999999999999Q174.63 109.57 172.635 108.31Q170.64000000000001 107.05 168.05 106.0Q165.46 104.94999999999999 161.96 104.94999999999999Q158.74 104.94999999999999 156.325 105.85999999999999Q153.91 106.77 152.3 108.38Q150.69 109.99 149.885 112.16Q149.08 114.33 149.08 116.91999999999999Q149.08 119.72 150.65500000000003 121.61Q152.23000000000002 123.5 154.85500000000002 124.935Q157.48000000000002 126.37 160.77 127.56Q164.06 128.75 167.525 130.15Q170.99 131.55 174.315 133.37Q177.64000000000001 135.19 180.265 137.92000000000002Q182.89 140.65 184.465 144.5Q186.04000000000002 148.35 186.04000000000002 153.74Q186.04000000000002 161.44 183.38 168.23000000000002Q180.72 175.02 175.75 180.095Q170.78 185.17 163.675 188.14499999999998Q156.57 191.12 147.68 191.12Q143.27 191.12 138.825 190.14Q134.38 189.16 130.285 187.375Q126.19 185.59 122.69 183.14Q119.19 180.69 116.74 177.68L124.86 167.04Q125.84 165.85 127.275 165.07999999999998Q128.71 164.31 130.18 164.31Q132.14 164.31 133.995 165.675Q135.85 167.04 138.09 168.685Q140.33 170.32999999999998 143.305 171.695Q146.28 173.06 150.62 173.06Q156.99 173.06 160.455 169.595Q163.92000000000002 166.13 163.92000000000002 159.34Q163.92000000000002 156.19 162.34500000000003 154.16Q160.77 152.13 158.215 150.73Q155.66 149.32999999999998 152.37 148.245Q149.08 147.16 145.65 145.89999999999998Q142.22 144.64 138.93 142.92499999999998Q135.64 141.20999999999998 133.08499999999998 138.445Q130.53 135.68 128.95499999999998 131.655Q127.38 127.63 127.38 121.75Q127.38 114.96 129.935 108.695Q132.49 102.42999999999999 137.25 97.6Q142.01 92.77 148.8 89.89999999999999Q155.59 87.02999999999999 164.06 87.02999999999999Q168.4 87.02999999999999 172.495 87.94Q176.59 88.85 180.16000000000003 90.46Q183.73000000000002 92.07 186.67000000000002 94.27499999999999Q189.61 96.47999999999999 191.64 99.07ZM220.09000000000003 155.63 215.89000000000004 190.0H193.21000000000004L205.67000000000002 88.00999999999999H239.41000000000003Q248.51000000000005 88.00999999999999 254.98500000000004 90.21499999999999Q261.46000000000004 92.41999999999999 265.625 96.30499999999999Q269.79 100.19 271.75 105.475Q273.71000000000004 110.75999999999999 273.71000000000004 116.85Q273.71000000000004 125.17999999999999 271.15500000000003 132.285Q268.6 139.39 263.35 144.57Q258.1 149.75 250.05 152.69Q242.00000000000003 155.63 231.01000000000005 155.63ZM226.39000000000004 105.02 222.26000000000005 138.48H233.25000000000003Q238.15000000000003 138.48 241.47500000000002 137.045Q244.80000000000004 135.60999999999999 246.86500000000004 132.98499999999999Q248.93000000000004 130.35999999999999 249.84000000000003 126.72Q250.75000000000003 123.08 250.75000000000003 118.74Q250.75000000000003 115.72999999999999 249.94500000000005 113.21Q249.14000000000004 110.69 247.46000000000004 108.87Q245.78000000000003 107.05 243.22500000000002 106.035Q240.67000000000002 105.02 237.17000000000002 105.02ZM300.06000000000006 171.8H334.36000000000007L332.12000000000006 190.0H275.00000000000006L287.6 88.00999999999999H310.4200000000001ZM426.7900000000001 190.0H409.1500000000001Q406.2100000000001 190.0 404.56500000000005 188.635Q402.9200000000001 187.27 402.2900000000001 185.03L399.1400000000001 166.69H364.49000000000007L356.93000000000006 185.03Q355.9500000000001 186.92 353.81500000000005 188.45999999999998Q351.68000000000006 190.0 348.9500000000001 190.0H331.0300000000001L379.75000000000006 88.00999999999999H403.1300000000001ZM370.86000000000007 151.15H396.4800000000001L391.5100000000001 122.02999999999999Q390.9500000000001 119.3 390.2850000000001 115.59Q389.62000000000006 111.88 388.99000000000007 107.53999999999999Q387.31000000000006 111.88 385.6650000000001 115.625Q384.0200000000001 119.36999999999999 382.8300000000001 122.16999999999999ZM495.70000000000005 108.44999999999999Q494.44000000000005 110.05999999999999 493.25000000000006 110.86499999999998Q492.06000000000006 111.66999999999999 490.3800000000001 111.66999999999999Q488.7700000000001 111.66999999999999 487.1600000000001 110.61999999999999Q485.55000000000007 109.57 483.55500000000006 108.31Q481.56000000000006 107.05 478.9700000000001 106.0Q476.3800000000001 104.94999999999999 472.88000000000005 104.94999999999999Q469.6600000000001 104.94999999999999 467.2450000000001 105.85999999999999Q464.8300000000001 106.77 463.2200000000001 108.38Q461.61000000000007 109.99 460.80500000000006 112.16Q460.00000000000006 114.33 460.00000000000006 116.91999999999999Q460.00000000000006 119.72 461.57500000000005 121.61Q463.1500000000001 123.5 465.7750000000001 124.935Q468.4000000000001 126.37 471.69000000000005 127.56Q474.9800000000001 128.75 478.44500000000005 130.15Q481.9100000000001 131.55 485.23500000000007 133.37Q488.56000000000006 135.19 491.18500000000006 137.92000000000002Q493.81000000000006 140.65 495.3850000000001 144.5Q496.9600000000001 148.35 496.9600000000001 153.74Q496.9600000000001 161.44 494.30000000000007 168.23000000000002Q491.6400000000001 175.02 486.6700000000001 180.095Q481.7000000000001 185.17 474.5950000000001 188.14499999999998Q467.49000000000007 191.12 458.6000000000001 191.12Q454.19000000000005 191.12 449.74500000000006 190.14Q445.30000000000007 189.16 441.20500000000004 187.375Q437.11000000000007 185.59 433.61000000000007 183.14Q430.11000000000007 180.69 427.6600000000001 177.68L435.7800000000001 167.04Q436.76000000000005 165.85 438.19500000000005 165.07999999999998Q439.63000000000005 164.31 441.1000000000001 164.31Q443.06000000000006 164.31 444.9150000000001 165.675Q446.7700000000001 167.04 449.0100000000001 168.685Q451.25000000000006 170.32999999999998 454.225 171.695Q457.20000000000005 173.06 461.5400000000001 173.06Q467.9100000000001 173.06 471.3750000000001 169.595Q474.8400000000001 166.13 474.8400000000001 159.34Q474.8400000000001 156.19 473.2650000000001 154.16Q471.69000000000005 152.13 469.1350000000001 150.73Q466.5800000000001 149.32999999999998 463.2900000000001 148.245Q460.00000000000006 147.16 456.57000000000005 145.89999999999998Q453.1400000000001 144.64 449.8500000000001 142.92499999999998Q446.56000000000006 141.20999999999998 444.00500000000005 138.445Q441.45000000000005 135.68 439.87500000000006 131.655Q438.30000000000007 127.63 438.30000000000007 121.75Q438.30000000000007 114.96 440.8550000000001 108.695Q443.4100000000001 102.42999999999999 448.1700000000001 97.6Q452.93000000000006 92.77 459.7200000000001 89.89999999999999Q466.5100000000001 87.02999999999999 474.9800000000001 87.02999999999999Q479.32000000000005 87.02999999999999 483.4150000000001 87.94Q487.5100000000001 88.85 491.0800000000001 90.46Q494.6500000000001 92.07 497.5900000000001 94.27499999999999Q500.5300000000001 96.47999999999999 502.56000000000006 99.07ZM586.8700000000001 190.0H563.9100000000001L569.2300000000001 146.6H532.4100000000001L527.0900000000001 190.0H504.1300000000001L516.7300000000001 88.00999999999999H539.69L534.3700000000001 131.06H571.19L576.5100000000001 88.00999999999999H599.4700000000001Z" fill="#ff7a00"/><path d="M283.36 273.92 278.67 312.0H255.99L268.45 210.01H299.39Q308.77 210.01 315.385 212.005Q322.0 214.0 326.2 217.5Q330.4 221.0 332.325 225.795Q334.25 230.58999999999997 334.25 236.19Q334.25 241.86 332.745 246.9Q331.24 251.94 328.37 256.17499999999995Q325.5 260.40999999999997 321.33500000000004 263.66499999999996Q317.17 266.92 311.85 269.02Q313.95 270.21 315.7 271.92499999999995Q317.45 273.64 318.71000000000004 276.09L333.55 312.0H312.97Q310.1 312.0 308.175 310.845Q306.25 309.69 305.41 307.66L294.35 277.49Q293.51 275.6 292.25 274.76Q290.99 273.92 288.47 273.92ZM289.17 227.01999999999998 285.32 258.17H293.65Q298.55 258.17 301.98 256.665Q305.41 255.16 307.545 252.64Q309.68 250.12 310.625 246.76Q311.57 243.39999999999998 311.57 239.69Q311.57 236.82 310.73 234.475Q309.89 232.13 308.105 230.48499999999999Q306.32 228.83999999999997 303.625 227.92999999999998Q300.93 227.01999999999998 297.29 227.01999999999998ZM381.74 294.08Q386.01000000000005 294.08 389.5450000000001 292.435Q393.08000000000004 290.79 395.74 287.745Q398.40000000000003 284.7 400.115 280.36Q401.83000000000004 276.02 402.46000000000004 270.63L409.88000000000005 210.01H432.70000000000005L425.28000000000003 270.63Q424.09000000000003 279.94 420.345 287.745Q416.6 295.55 410.615 301.185Q404.63000000000005 306.82 396.72 309.97Q388.81000000000006 313.12 379.36 313.12Q369.91 313.12 362.77000000000004 309.97Q355.63000000000005 306.82 351.0450000000001 301.185Q346.46000000000004 295.55 344.605 287.745Q342.75000000000006 279.94 343.94000000000005 270.63L351.22 210.01H374.04L366.62000000000006 270.63Q365.99 276.02 366.69000000000005 280.36Q367.39000000000004 284.7 369.31500000000005 287.745Q371.24 290.79 374.355 292.435Q377.47 294.08 381.74 294.08ZM498.46000000000004 230.45Q497.20000000000005 232.06 496.01000000000005 232.865Q494.82000000000005 233.67 493.1400000000001 233.67Q491.5300000000001 233.67 489.9200000000001 232.62Q488.31000000000006 231.57 486.31500000000005 230.31Q484.32000000000005 229.05 481.7300000000001 228.0Q479.1400000000001 226.95 475.64000000000004 226.95Q472.4200000000001 226.95 470.0050000000001 227.85999999999999Q467.5900000000001 228.76999999999998 465.9800000000001 230.38Q464.37000000000006 231.99 463.56500000000005 234.16Q462.76000000000005 236.32999999999998 462.76000000000005 238.92Q462.76000000000005 241.72 464.33500000000004 243.61Q465.9100000000001 245.5 468.5350000000001 246.935Q471.1600000000001 248.37 474.45000000000005 249.56Q477.74000000000007 250.75 481.20500000000004 252.15Q484.6700000000001 253.55 487.99500000000006 255.37Q491.32000000000005 257.19 493.94500000000005 259.91999999999996Q496.57000000000005 262.65 498.1450000000001 266.5Q499.7200000000001 270.35 499.7200000000001 275.74Q499.7200000000001 283.44 497.06000000000006 290.23Q494.4000000000001 297.02 489.43000000000006 302.095Q484.4600000000001 307.17 477.3550000000001 310.145Q470.25000000000006 313.12 461.36000000000007 313.12Q456.95000000000005 313.12 452.50500000000005 312.14Q448.06000000000006 311.16 443.96500000000003 309.375Q439.87000000000006 307.59 436.37000000000006 305.14Q432.87000000000006 302.69 430.4200000000001 299.68L438.5400000000001 289.04Q439.52000000000004 287.85 440.95500000000004 287.08000000000004Q442.39000000000004 286.31 443.86000000000007 286.31Q445.82000000000005 286.31 447.67500000000007 287.675Q449.5300000000001 289.04 451.7700000000001 290.685Q454.01000000000005 292.33 456.985 293.695Q459.96000000000004 295.06 464.30000000000007 295.06Q470.6700000000001 295.06 474.1350000000001 291.595Q477.6000000000001 288.13 477.6000000000001 281.34Q477.6000000000001 278.19 476.0250000000001 276.15999999999997Q474.45000000000005 274.13 471.8950000000001 272.73Q469.3400000000001 271.33 466.05000000000007 270.245Q462.76000000000005 269.15999999999997 459.33000000000004 267.9Q455.9000000000001 266.64 452.61000000000007 264.92499999999995Q449.32000000000005 263.21 446.76500000000004 260.445Q444.21000000000004 257.68 442.63500000000005 253.655Q441.06000000000006 249.63 441.06000000000006 243.75Q441.06000000000006 236.95999999999998 443.61500000000007 230.695Q446.1700000000001 224.43 450.93000000000006 219.6Q455.69000000000005 214.76999999999998 462.4800000000001 211.89999999999998Q469.2700000000001 209.02999999999997 477.74000000000007 209.02999999999997Q482.08000000000004 209.02999999999997 486.17500000000007 209.94Q490.2700000000001 210.85 493.8400000000001 212.45999999999998Q497.4100000000001 214.07 500.3500000000001 216.27499999999998Q503.2900000000001 218.48 505.32000000000005 221.07ZM589.6300000000001 312.0H566.6700000000001L571.9900000000001 268.6H535.1700000000001L529.8500000000001 312.0H506.8900000000001L519.4900000000001 210.01H542.45L537.1300000000001 253.06H573.95L579.2700000000001 210.01H602.2300000000001ZM638.1000000000001 210.01 633.2000000000002 250.19Q632.4300000000001 256.56 630.8900000000001 262.895Q629.3500000000001 269.23 627.3200000000002 275.88H613.1800000000001Q612.7600000000001 269.23 612.8300000000002 262.895Q612.9000000000001 256.56 613.7400000000001 250.19L618.6400000000001 210.01ZM605.9000000000001 301.01Q605.9000000000001 298.49 606.845 296.32Q607.7900000000001 294.15 609.4350000000002 292.53999999999996Q611.0800000000002 290.93 613.3200000000002 289.985Q615.5600000000001 289.04 618.2200000000001 289.04Q620.8100000000001 289.04 623.0500000000001 289.985Q625.2900000000001 290.93 626.97 292.53999999999996Q628.6500000000001 294.15 629.595 296.32Q630.5400000000001 298.49 630.5400000000001 301.01Q630.5400000000001 303.53 629.595 305.735Q628.6500000000001 307.94 626.97 309.55Q625.2900000000001 311.16 623.0500000000001 312.07000000000005Q620.8100000000001 312.98 618.2200000000001 312.98Q615.5600000000001 312.98 613.3200000000002 312.07000000000005Q611.0800000000002 311.16 609.4350000000002 309.55Q607.7900000000001 307.94 606.845 305.735Q605.9000000000001 303.53 605.9000000000001 301.01Z" fill="#111" transform="translate(0 9)"/><path d="M283.36 273.92 278.67 312.0H255.99L268.45 210.01H299.39Q308.77 210.01 315.385 212.005Q322.0 214.0 326.2 217.5Q330.4 221.0 332.325 225.795Q334.25 230.58999999999997 334.25 236.19Q334.25 241.86 332.745 246.9Q331.24 251.94 328.37 256.17499999999995Q325.5 260.40999999999997 321.33500000000004 263.66499999999996Q317.17 266.92 311.85 269.02Q313.95 270.21 315.7 271.92499999999995Q317.45 273.64 318.71000000000004 276.09L333.55 312.0H312.97Q310.1 312.0 308.175 310.845Q306.25 309.69 305.41 307.66L294.35 277.49Q293.51 275.6 292.25 274.76Q290.99 273.92 288.47 273.92ZM289.17 227.01999999999998 285.32 258.17H293.65Q298.55 258.17 301.98 256.665Q305.41 255.16 307.545 252.64Q309.68 250.12 310.625 246.76Q311.57 243.39999999999998 311.57 239.69Q311.57 236.82 310.73 234.475Q309.89 232.13 308.105 230.48499999999999Q306.32 228.83999999999997 303.625 227.92999999999998Q300.93 227.01999999999998 297.29 227.01999999999998ZM381.74 294.08Q386.01000000000005 294.08 389.5450000000001 292.435Q393.08000000000004 290.79 395.74 287.745Q398.40000000000003 284.7 400.115 280.36Q401.83000000000004 276.02 402.46000000000004 270.63L409.88000000000005 210.01H432.70000000000005L425.28000000000003 270.63Q424.09000000000003 279.94 420.345 287.745Q416.6 295.55 410.615 301.185Q404.63000000000005 306.82 396.72 309.97Q388.81000000000006 313.12 379.36 313.12Q369.91 313.12 362.77000000000004 309.97Q355.63000000000005 306.82 351.0450000000001 301.185Q346.46000000000004 295.55 344.605 287.745Q342.75000000000006 279.94 343.94000000000005 270.63L351.22 210.01H374.04L366.62000000000006 270.63Q365.99 276.02 366.69000000000005 280.36Q367.39000000000004 284.7 369.31500000000005 287.745Q371.24 290.79 374.355 292.435Q377.47 294.08 381.74 294.08ZM498.46000000000004 230.45Q497.20000000000005 232.06 496.01000000000005 232.865Q494.82000000000005 233.67 493.1400000000001 233.67Q491.5300000000001 233.67 489.9200000000001 232.62Q488.31000000000006 231.57 486.31500000000005 230.31Q484.32000000000005 229.05 481.7300000000001 228.0Q479.1400000000001 226.95 475.64000000000004 226.95Q472.4200000000001 226.95 470.0050000000001 227.85999999999999Q467.5900000000001 228.76999999999998 465.9800000000001 230.38Q464.37000000000006 231.99 463.56500000000005 234.16Q462.76000000000005 236.32999999999998 462.76000000000005 238.92Q462.76000000000005 241.72 464.33500000000004 243.61Q465.9100000000001 245.5 468.5350000000001 246.935Q471.1600000000001 248.37 474.45000000000005 249.56Q477.74000000000007 250.75 481.20500000000004 252.15Q484.6700000000001 253.55 487.99500000000006 255.37Q491.32000000000005 257.19 493.94500000000005 259.91999999999996Q496.57000000000005 262.65 498.1450000000001 266.5Q499.7200000000001 270.35 499.7200000000001 275.74Q499.7200000000001 283.44 497.06000000000006 290.23Q494.4000000000001 297.02 489.43000000000006 302.095Q484.4600000000001 307.17 477.3550000000001 310.145Q470.25000000000006 313.12 461.36000000000007 313.12Q456.95000000000005 313.12 452.50500000000005 312.14Q448.06000000000006 311.16 443.96500000000003 309.375Q439.87000000000006 307.59 436.37000000000006 305.14Q432.87000000000006 302.69 430.4200000000001 299.68L438.5400000000001 289.04Q439.52000000000004 287.85 440.95500000000004 287.08000000000004Q442.39000000000004 286.31 443.86000000000007 286.31Q445.82000000000005 286.31 447.67500000000007 287.675Q449.5300000000001 289.04 451.7700000000001 290.685Q454.01000000000005 292.33 456.985 293.695Q459.96000000000004 295.06 464.30000000000007 295.06Q470.6700000000001 295.06 474.1350000000001 291.595Q477.6000000000001 288.13 477.6000000000001 281.34Q477.6000000000001 278.19 476.0250000000001 276.15999999999997Q474.45000000000005 274.13 471.8950000000001 272.73Q469.3400000000001 271.33 466.05000000000007 270.245Q462.76000000000005 269.15999999999997 459.33000000000004 267.9Q455.9000000000001 266.64 452.61000000000007 264.92499999999995Q449.32000000000005 263.21 446.76500000000004 260.445Q444.21000000000004 257.68 442.63500000000005 253.655Q441.06000000000006 249.63 441.06000000000006 243.75Q441.06000000000006 236.95999999999998 443.61500000000007 230.695Q446.1700000000001 224.43 450.93000000000006 219.6Q455.69000000000005 214.76999999999998 462.4800000000001 211.89999999999998Q469.2700000000001 209.02999999999997 477.74000000000007 209.02999999999997Q482.08000000000004 209.02999999999997 486.17500000000007 209.94Q490.2700000000001 210.85 493.8400000000001 212.45999999999998Q497.4100000000001 214.07 500.3500000000001 216.27499999999998Q503.2900000000001 218.48 505.32000000000005 221.07ZM589.6300000000001 312.0H566.6700000000001L571.9900000000001 268.6H535.1700000000001L529.8500000000001 312.0H506.8900000000001L519.4900000000001 210.01H542.45L537.1300000000001 253.06H573.95L579.2700000000001 210.01H602.2300000000001ZM638.1000000000001 210.01 633.2000000000002 250.19Q632.4300000000001 256.56 630.8900000000001 262.895Q629.3500000000001 269.23 627.3200000000002 275.88H613.1800000000001Q612.7600000000001 269.23 612.8300000000002 262.895Q612.9000000000001 256.56 613.7400000000001 250.19L618.6400000000001 210.01ZM605.9000000000001 301.01Q605.9000000000001 298.49 606.845 296.32Q607.7900000000001 294.15 609.4350000000002 292.53999999999996Q611.0800000000002 290.93 613.3200000000002 289.985Q615.5600000000001 289.04 618.2200000000001 289.04Q620.8100000000001 289.04 623.0500000000001 289.985Q625.2900000000001 290.93 626.97 292.53999999999996Q628.6500000000001 294.15 629.595 296.32Q630.5400000000001 298.49 630.5400000000001 301.01Q630.5400000000001 303.53 629.595 305.735Q628.6500000000001 307.94 626.97 309.55Q625.2900000000001 311.16 623.0500000000001 312.07000000000005Q620.8100000000001 312.98 618.2200000000001 312.98Q615.5600000000001 312.98 613.3200000000002 312.07000000000005Q611.0800000000002 311.16 609.4350000000002 309.55Q607.7900000000001 307.94 606.845 305.735Q605.9000000000001 303.53 605.9000000000001 301.01Z" fill="#111" stroke="#111" stroke-width="12" stroke-linejoin="round"/><path d="M283.36 273.92 278.67 312.0H255.99L268.45 210.01H299.39Q308.77 210.01 315.385 212.005Q322.0 214.0 326.2 217.5Q330.4 221.0 332.325 225.795Q334.25 230.58999999999997 334.25 236.19Q334.25 241.86 332.745 246.9Q331.24 251.94 328.37 256.17499999999995Q325.5 260.40999999999997 321.33500000000004 263.66499999999996Q317.17 266.92 311.85 269.02Q313.95 270.21 315.7 271.92499999999995Q317.45 273.64 318.71000000000004 276.09L333.55 312.0H312.97Q310.1 312.0 308.175 310.845Q306.25 309.69 305.41 307.66L294.35 277.49Q293.51 275.6 292.25 274.76Q290.99 273.92 288.47 273.92ZM289.17 227.01999999999998 285.32 258.17H293.65Q298.55 258.17 301.98 256.665Q305.41 255.16 307.545 252.64Q309.68 250.12 310.625 246.76Q311.57 243.39999999999998 311.57 239.69Q311.57 236.82 310.73 234.475Q309.89 232.13 308.105 230.48499999999999Q306.32 228.83999999999997 303.625 227.92999999999998Q300.93 227.01999999999998 297.29 227.01999999999998ZM381.74 294.08Q386.01000000000005 294.08 389.5450000000001 292.435Q393.08000000000004 290.79 395.74 287.745Q398.40000000000003 284.7 400.115 280.36Q401.83000000000004 276.02 402.46000000000004 270.63L409.88000000000005 210.01H432.70000000000005L425.28000000000003 270.63Q424.09000000000003 279.94 420.345 287.745Q416.6 295.55 410.615 301.185Q404.63000000000005 306.82 396.72 309.97Q388.81000000000006 313.12 379.36 313.12Q369.91 313.12 362.77000000000004 309.97Q355.63000000000005 306.82 351.0450000000001 301.185Q346.46000000000004 295.55 344.605 287.745Q342.75000000000006 279.94 343.94000000000005 270.63L351.22 210.01H374.04L366.62000000000006 270.63Q365.99 276.02 366.69000000000005 280.36Q367.39000000000004 284.7 369.31500000000005 287.745Q371.24 290.79 374.355 292.435Q377.47 294.08 381.74 294.08ZM498.46000000000004 230.45Q497.20000000000005 232.06 496.01000000000005 232.865Q494.82000000000005 233.67 493.1400000000001 233.67Q491.5300000000001 233.67 489.9200000000001 232.62Q488.31000000000006 231.57 486.31500000000005 230.31Q484.32000000000005 229.05 481.7300000000001 228.0Q479.1400000000001 226.95 475.64000000000004 226.95Q472.4200000000001 226.95 470.0050000000001 227.85999999999999Q467.5900000000001 228.76999999999998 465.9800000000001 230.38Q464.37000000000006 231.99 463.56500000000005 234.16Q462.76000000000005 236.32999999999998 462.76000000000005 238.92Q462.76000000000005 241.72 464.33500000000004 243.61Q465.9100000000001 245.5 468.5350000000001 246.935Q471.1600000000001 248.37 474.45000000000005 249.56Q477.74000000000007 250.75 481.20500000000004 252.15Q484.6700000000001 253.55 487.99500000000006 255.37Q491.32000000000005 257.19 493.94500000000005 259.91999999999996Q496.57000000000005 262.65 498.1450000000001 266.5Q499.7200000000001 270.35 499.7200000000001 275.74Q499.7200000000001 283.44 497.06000000000006 290.23Q494.4000000000001 297.02 489.43000000000006 302.095Q484.4600000000001 307.17 477.3550000000001 310.145Q470.25000000000006 313.12 461.36000000000007 313.12Q456.95000000000005 313.12 452.50500000000005 312.14Q448.06000000000006 311.16 443.96500000000003 309.375Q439.87000000000006 307.59 436.37000000000006 305.14Q432.87000000000006 302.69 430.4200000000001 299.68L438.5400000000001 289.04Q439.52000000000004 287.85 440.95500000000004 287.08000000000004Q442.39000000000004 286.31 443.86000000000007 286.31Q445.82000000000005 286.31 447.67500000000007 287.675Q449.5300000000001 289.04 451.7700000000001 290.685Q454.01000000000005 292.33 456.985 293.695Q459.96000000000004 295.06 464.30000000000007 295.06Q470.6700000000001 295.06 474.1350000000001 291.595Q477.6000000000001 288.13 477.6000000000001 281.34Q477.6000000000001 278.19 476.0250000000001 276.15999999999997Q474.45000000000005 274.13 471.8950000000001 272.73Q469.3400000000001 271.33 466.05000000000007 270.245Q462.76000000000005 269.15999999999997 459.33000000000004 267.9Q455.9000000000001 266.64 452.61000000000007 264.92499999999995Q449.32000000000005 263.21 446.76500000000004 260.445Q444.21000000000004 257.68 442.63500000000005 253.655Q441.06000000000006 249.63 441.06000000000006 243.75Q441.06000000000006 236.95999999999998 443.61500000000007 230.695Q446.1700000000001 224.43 450.93000000000006 219.6Q455.69000000000005 214.76999999999998 462.4800000000001 211.89999999999998Q469.2700000000001 209.02999999999997 477.74000000000007 209.02999999999997Q482.08000000000004 209.02999999999997 486.17500000000007 209.94Q490.2700000000001 210.85 493.8400000000001 212.45999999999998Q497.4100000000001 214.07 500.3500000000001 216.27499999999998Q503.2900000000001 218.48 505.32000000000005 221.07ZM589.6300000000001 312.0H566.6700000000001L571.9900000000001 268.6H535.1700000000001L529.8500000000001 312.0H506.8900000000001L519.4900000000001 210.01H542.45L537.1300000000001 253.06H573.95L579.2700000000001 210.01H602.2300000000001ZM638.1000000000001 210.01 633.2000000000002 250.19Q632.4300000000001 256.56 630.8900000000001 262.895Q629.3500000000001 269.23 627.3200000000002 275.88H613.1800000000001Q612.7600000000001 269.23 612.8300000000002 262.895Q612.9000000000001 256.56 613.7400000000001 250.19L618.6400000000001 210.01ZM605.9000000000001 301.01Q605.9000000000001 298.49 606.845 296.32Q607.7900000000001 294.15 609.4350000000002 292.53999999999996Q611.0800000000002 290.93 613.3200000000002 289.985Q615.5600000000001 289.04 618.2200000000001 289.04Q620.8100000000001 289.04 623.0500000000001 289.985Q625.2900000000001 290.93 626.97 292.53999999999996Q628.6500000000001 294.15 629.595 296.32Q630.5400000000001 298.49 630.5400000000001 301.01Q630.5400000000001 303.53 629.595 305.735Q628.6500000000001 307.94 626.97 309.55Q625.2900000000001 311.16 623.0500000000001 312.07000000000005Q620.8100000000001 312.98 618.2200000000001 312.98Q615.5600000000001 312.98 613.3200000000002 312.07000000000005Q611.0800000000002 311.16 609.4350000000002 309.55Q607.7900000000001 307.94 606.845 305.735Q605.9000000000001 303.53 605.9000000000001 301.01Z" fill="#3346ff"/></g>
<g transform="rotate(2 770 300)"><rect x="655" y="262" rx="31" width="236" height="62" fill="#111"/><rect x="655" y="262" rx="31" width="236" height="62" fill="none" stroke="#ff7a00" stroke-width="4" transform="translate(0 6)" opacity=".9"/>
<text x="773" y="307" text-anchor="middle" font-family="Noto Sans CJK SC" font-weight="700" font-size="36" fill="#fff" letter-spacing="10">墨浪突击</text></g>
<text x="124" y="385" font-family="Noto Sans CJK SC" font-weight="700" font-size="22" fill="#fff" opacity=".88" letter-spacing="3">4 V 4 网页涂地射击 · 打开浏览器就能玩</text>
</g></svg>